<?xml version="1.0" encoding="UTF-8"?> <svg xmlns="http://www.w3.org/2000/svg" width="2638" height="920" viewBox="0 0 2638 920" fill="none"> <path d="M869.917 374.022H789.452V138.407H853.617C871.804 138.407 887.893 141.346 901.477 147.165C916.06 152.471 928.145 160.381 938.455 171.381C949.573 182.493 957.489 194.814 962.677 209.062C968.259 222.718 970.745 237.677 970.745 257.573C970.745 298.87 961.737 327.951 943.195 346.493C925.338 365.015 901.372 374.022 869.917 374.022ZM1102.15 625.28C1096.1 625.28 1090.47 625.076 1085.5 624.878C1081.51 624.727 1078.05 624.596 1075.04 624.596C1067.96 623.886 1062.87 622.459 1058.59 620.013C1055.16 617.738 1051.47 613.832 1046.69 607.468C1044.99 604.417 1043 601.097 1040.7 597.25C1038.39 593.417 1035.83 589.157 1033.12 584.383L1030.79 580.155C1004.78 532.69 982.317 491.702 963.847 457.407C959.935 450.135 956.28 443.336 952.874 436.985C940.23 413.433 930.966 396.174 924.503 385.279C959.146 378.152 985.295 365.718 1004.39 347.288C1024.26 328.74 1033.91 302.947 1033.91 268.434C1033.91 245.507 1030.22 226.815 1022.29 209.641C1014.56 191.369 1003.58 176.582 988.76 164.457C975.124 152.129 958.614 143.003 936.785 135.731C916.126 128.841 894.251 125.487 869.917 125.487H731.165V151.373C731.684 157.777 731.717 166.009 731.717 178.857C732.157 186.655 732.032 196.228 731.888 207.307C731.809 213.586 731.717 220.371 731.717 227.696V529.192C731.717 549.476 731.677 563.659 731.165 575.645V631.407H789.452V578.091V539.377V384.917H862.934C868.464 397.278 882.265 425.807 899.57 460.418C907.348 475.113 915.863 491.025 925.061 508.218C937.337 531.185 951.263 557.209 966.129 585.382C972.513 596.731 978.22 605.186 982.553 611.367C987.794 617.258 994.415 621.538 1004.09 625.247C1013.41 627.91 1024.41 629.271 1040.32 630.724C1055.96 631.407 1076.35 631.407 1102.15 631.407H1103.18V625.28H1102.15Z" fill="black"></path> <path d="M2273.29 38.5433L2285.72 0.000612372L2454.79 91.998L2273.29 38.5433Z" fill="black"></path> <path d="M279.944 415.84C258.358 388.179 226.903 366.087 183.784 348.302C141.409 330.529 110.421 311.501 89.0584 290.133C68.071 268.475 57.4261 247.237 57.4261 227.013C57.4261 195.249 64.8887 169.652 79.6299 150.894C93.9765 131.978 113.037 122.779 137.891 122.779C151.481 122.779 162.6 124.278 172.883 127.487L173.107 127.566C173.403 127.737 173.731 127.914 174.1 128.105L174.56 128.217H174.974L181.773 130.59C181.937 130.669 182.101 130.748 182.259 130.827L182.706 130.926H182.719L186.408 132.214C196.619 136.593 205.199 141.439 212.728 147.074C222.018 152.801 229.849 160.165 235.668 165.977C243.078 172.716 249.074 179.357 254.604 186.958C259.995 192.948 263.598 198.74 266.643 206.347L267.037 207.34L285.237 199.003L284.829 198.076C279.122 185.242 271.488 174.478 261.547 165.201C252.664 155.68 242.315 148.086 228.021 140.558C215.995 133.878 201.747 128.361 185.691 124.173C172.193 120.491 156.557 118.696 137.891 118.696C118.179 118.696 101.387 121.832 86.5665 128.289C69.9186 135.094 56.9198 143.615 46.8469 154.306C36.4321 164.728 28.1607 177.779 20.8165 195.4C14.9121 210.496 11.9205 228.209 11.9205 248.066C11.9205 278.922 23.3215 308.01 46.7877 336.999C69.9186 364.884 104.549 388.745 149.719 407.904C189.695 424.453 218.461 442.14 237.68 462.03C257.115 480.827 266.564 499.461 266.564 519.009C266.564 553.994 257.543 581.32 238.975 602.544C220.868 623.327 197.132 633.427 166.407 633.427C137.569 633.427 108.987 623.216 81.53 603.116C75.2509 597.553 68.5247 591.472 61.9102 584.87C58.2874 580.886 55.0328 577.066 51.8833 573.371C49.1284 570.149 46.4261 566.986 43.6514 563.909C40.4165 559.464 37.4183 555 34.5188 550.707C32.5594 547.781 30.6395 544.934 28.7788 542.284C26.9049 538.845 25.0639 535.755 23.2887 532.77C21.2833 529.397 19.3897 526.215 17.9366 523.309L17.4829 522.408L0 530.771L0.49313 531.718C7.86371 545.723 15.4447 557.762 23.716 568.577C33.1906 579.406 43.5068 589.716 54.3161 599.191L55.2958 600.164H56.0651C72.7195 612.623 89.5976 621.934 107.666 628.62C125.931 635.143 144.597 638.187 166.407 638.187C187.657 638.187 208.441 634.88 226.522 628.614C245.175 621.71 260.173 612.755 272.37 601.235C285.69 588.611 295.829 574.107 302.483 558.136C309.584 541.988 312.753 524.893 312.753 502.709C312.753 472.28 301.707 443.047 279.944 415.84Z" fill="black"></path> <path d="M726.419 892.831C721.955 898.203 709.1 907.789 686.66 907.789C651.234 907.789 636.013 883.784 636.013 859.371C636.013 831.033 656.356 812.794 686.923 812.794C708.048 812.794 719.331 821.46 724.446 833.525H714.742C712.375 826.174 702.013 818.573 687.054 818.573C664.877 818.573 648.873 835.366 648.873 859.108C648.873 881.548 663.306 901.892 690.73 901.892C703.065 901.892 713.427 897.822 722.481 889.287L726.419 892.831Z" fill="black"></path> <path d="M805.356 814.366V821.585H757.99V854.513H798.663V860.818H757.99V898.999H805.356V906.212H746.05V814.366H805.356Z" fill="black"></path> <path d="M847.045 906.212V821.585H811.882V814.366H894.148V821.585H858.985V906.212H847.045Z" fill="black"></path> <path d="M943.053 900.446C955.249 900.446 963.521 891.386 963.521 880.504C963.521 868.82 954.335 860.299 941.218 860.299H924.426V900.446H943.053ZM912.485 814.366H924.426V854.519H944.492C967.59 854.519 976.644 866.986 976.644 879.057C976.644 891.517 968.767 906.212 943.71 906.212H912.485V814.366Z" fill="black"></path> <path d="M1126.17 814.365V907.789H1125.51L1052.69 836.023H1052.16V906.211H1046.13V812.794H1046.79L1119.6 884.566H1120.13V814.365H1126.17Z" fill="black"></path> <path d="M1185.3 829.063H1184.77L1165.88 873.279H1205.9L1185.3 829.063ZM1163.39 879.184L1151.84 906.207H1145.8L1184.64 814.367H1191.2L1233.97 906.207H1221.25L1208.65 879.184H1163.39Z" fill="black"></path> <path d="M1270.81 906.207H1258.87V814.361H1270.81V906.207Z" fill="black"></path> <path d="M1307.52 906.212V814.366H1319.46V898.999H1366.83V906.212H1307.52Z" fill="black"></path> <path d="M1515.17 892.831C1510.71 898.203 1497.86 907.789 1475.42 907.789C1439.99 907.789 1424.77 883.784 1424.77 859.371C1424.77 831.033 1445.11 812.794 1475.69 812.794C1496.8 812.794 1508.09 821.46 1513.21 833.525H1503.5C1501.14 826.174 1490.77 818.573 1475.81 818.573C1453.64 818.573 1437.63 835.366 1437.63 859.108C1437.63 881.548 1452.06 901.892 1479.49 901.892C1491.82 901.892 1502.18 897.822 1511.24 889.287L1515.17 892.831Z" fill="black"></path> <path d="M1556.85 906.212V821.585H1521.69V814.366H1603.95V821.585H1568.79V906.212H1556.85Z" fill="black"></path> <path d="M1657.33 867.642H1657.85L1682.39 814.365H1689.21L1651.55 895.987C1646.83 906.086 1640.79 907.789 1635.41 907.789C1629.52 907.789 1624.26 905.56 1621.89 903.456L1627.4 891.26C1629.64 894.278 1633.32 897.421 1637.51 897.421C1643.16 897.421 1645.13 894.409 1646.83 890.865L1651.55 880.898L1610.48 814.365H1624.52L1657.33 867.642Z" fill="black"></path> <path d="M1743.63 828.673H1743.1L1715.55 900.045H1774.07L1743.63 828.673ZM1786.66 900.045H1799.52V920H1788.37V906.212H1708.34V920H1697.05V900.045H1709.38L1742.31 814.366H1750.32L1786.66 900.045Z" fill="black"></path> <path d="M1885.55 814.366H1897.49V906.212H1885.55V824.209L1831.1 906.212H1819.15V814.366H1831.1V895.449L1885.55 814.366Z" fill="black"></path> <path d="M1944.81 794.958V793.373H1957.28C1957.15 794.3 1957.01 795.089 1957.01 795.872C1957.01 803.341 1964.23 803.611 1967.39 803.611C1970.4 803.611 1977.62 803.341 1977.62 795.872C1977.62 795.089 1977.49 794.3 1977.35 793.373H1989.94V794.958C1989.94 807.812 1973.81 807.812 1967.39 807.812C1960.82 807.812 1944.81 807.812 1944.81 794.958ZM1995.33 814.512H2007.27V906.345H1995.33V824.335L1940.88 906.345H1928.94V814.512H1940.88V895.595L1995.33 814.512Z" fill="black"></path> <path d="M2618.8 272.142C2606.11 239.017 2589.61 212.25 2568.34 190.323C2546.03 166.62 2520.14 149.216 2489.23 137.111C2459.86 124.717 2426.19 118.701 2386.29 118.701C2349.11 118.701 2315.39 125.125 2286.08 137.788C2256.08 150.064 2231.28 166.6 2210.26 188.357L2209.03 189.639L2207.85 190.783C2207.91 190.855 2210.52 193.926 2213.48 199.107C2215.5 202.638 2226.2 222.468 2221.44 254.534C2220.78 259.012 2220.77 263.844 2219.99 267.572L2222 268.013C2222.08 267.645 2228.55 239.872 2239.53 218.694C2242.61 212.75 2255.66 193.86 2256.75 192.295C2272.55 169.901 2290.36 153.595 2312.76 140.99C2334.91 128.912 2359.42 122.784 2385.6 122.784C2413.76 122.784 2438.7 128.741 2461.86 141.003C2485.54 153.535 2504.75 170.538 2520.58 192.985C2537.54 216.294 2549.93 242.62 2558.46 273.49C2567.57 303.419 2572 337.754 2572 378.447C2572 416.424 2567.21 451.745 2557.79 483.403C2547.47 517.265 2535.01 543.058 2518.56 564.572C2501.4 587.242 2481.52 604.022 2457.8 615.883C2433.95 628.152 2408.33 634.109 2379.5 634.109C2357.95 634.109 2338.3 629.822 2319.4 621.005L2318.79 620.722L2318.28 621.176C2315.5 623.674 2313 625.831 2310.66 627.777L2309.12 629.046L2311.04 629.559C2332.54 635.286 2355.57 638.192 2379.5 638.192C2417.22 638.192 2452.76 631.768 2485.13 619.111C2518.24 605.718 2545 588.544 2566.96 566.59C2588.86 544.682 2605.82 517.915 2618.8 484.751C2631.01 452.856 2637.2 417.094 2637.2 378.447C2637.2 339.121 2631.01 303.347 2618.8 272.142Z" fill="black"></path> <path d="M433.221 620.508V568.585V528.596V375.694H596.182V375.773H602.987V375.694V364.845H596.182H433.221V138.409H636.928H644.41V125.489H643.726H431.176H375.486V178.858C375.926 186.656 375.801 196.229 375.657 207.308C375.578 213.581 375.486 220.373 375.486 227.697V631.403H422.708H431.176H660.709H661.387V622.559V620.508H433.221Z" fill="black"></path> <path d="M2008.02 374.022H1927.55V138.407H1991.72C2009.91 138.407 2025.99 141.346 2039.58 147.165C2054.16 152.471 2066.24 160.381 2076.56 171.381C2087.68 182.493 2095.59 194.814 2100.77 209.062C2106.36 222.718 2108.85 237.677 2108.85 257.573C2108.85 298.87 2099.84 327.951 2081.3 346.493C2063.44 365.015 2039.47 374.022 2008.02 374.022ZM2240.25 625.28C2234.21 625.28 2228.57 625.076 2223.6 624.878C2219.61 624.727 2216.15 624.596 2213.15 624.596C2206.06 623.886 2200.97 622.459 2196.68 620.013C2193.26 617.738 2189.57 613.832 2184.79 607.468C2183.09 604.417 2181.1 601.097 2178.8 597.25C2176.49 593.417 2173.93 589.157 2171.21 584.383L2168.9 580.155C2142.89 532.69 2120.42 491.702 2101.95 457.407C2098.04 450.135 2094.38 443.336 2090.97 436.985C2078.33 413.433 2069.06 396.174 2062.6 385.279C2097.24 378.152 2123.4 365.718 2142.49 347.288C2162.36 328.74 2172.01 302.947 2172.01 268.434C2172.01 245.507 2168.32 226.815 2160.39 209.641C2152.66 191.369 2141.68 176.582 2126.86 164.457C2113.23 152.129 2096.71 143.003 2074.89 135.731C2054.22 128.841 2032.35 125.487 2008.02 125.487H1869.26L1869.27 151.373C1869.79 157.777 1869.82 166.009 1869.82 178.857C1870.26 186.655 1870.13 196.228 1869.99 207.307C1869.9 213.586 1869.82 220.371 1869.82 227.696V529.192C1869.82 549.476 1869.78 563.659 1869.26 575.645V631.407H1927.55V578.091V539.377V384.917H2001.04C2006.56 397.278 2020.37 425.807 2037.67 460.418C2045.44 475.113 2053.96 491.025 2063.16 508.218C2075.44 531.185 2089.37 557.209 2104.23 585.382C2110.62 596.731 2116.32 605.186 2120.66 611.367C2125.9 617.258 2132.52 621.538 2142.19 625.247C2151.51 627.91 2162.51 629.271 2178.42 630.724C2194.06 631.407 2214.45 631.407 2240.25 631.407H2241.28V625.28H2240.25Z" fill="black"></path> <path d="M1214.59 620.508L1214.58 587.324C1214 581.446 1214 575.186 1214 568.585V413.928V377.022V375.694H1384.35V364.688H1214V364.01V294.907V138.356H1417.7H1425.18H1425.77V125.489H1424.5H1212.54H1155.7L1155.7 151.296C1156.22 157.739 1156.26 166.372 1156.26 178.858C1156.7 186.656 1156.57 196.229 1156.43 207.308C1156.35 213.581 1156.26 220.373 1156.26 227.697V529.194C1156.26 549.485 1156.22 563.693 1155.7 575.798V631.403H1212.54H1441.49H1442.75V620.508H1214.59Z" fill="black"></path> <path d="M1756.87 554.731L1756.86 554.745C1752.66 570.86 1745.84 583.221 1735.37 593.682C1730.82 598.547 1725.29 602.854 1718.92 606.753C1692.67 621.79 1630.54 620.508 1630.54 620.508H1570.1V390.823H1630.54H1639.71C1639.71 390.823 1674.38 390.915 1693.93 397.701C1707.37 403.388 1718.21 410.068 1727.28 418.576C1738.22 428.879 1746.59 440.984 1752.86 455.6C1759.27 469.73 1762.26 484.925 1762.26 503.394C1762.26 524.625 1760.5 541.411 1756.87 554.731ZM1570.1 188.313V138.356H1650.57C1650.57 138.356 1693.6 136.482 1708.4 153.078C1709.67 154.544 1710.96 156.01 1712.2 157.667C1720.16 168.95 1726.28 184.348 1730.38 203.488C1734.93 222.339 1737.13 246.699 1737.13 277.944C1737.13 311.535 1730.54 336.658 1716.95 354.766C1712.5 361.216 1707.41 366.489 1701.77 370.776C1686.14 380.441 1654.5 379.928 1654.5 379.928H1630.54H1570.1V192.771V188.313ZM1809.03 462.879C1802.27 448.71 1792.19 436.381 1778.19 425.171C1764.01 413.842 1748.15 405.124 1729.69 398.536C1715.79 393.387 1699.85 389.541 1680.23 386.648C1696 385.879 1709.08 383.558 1721.51 379.409C1738.87 373.63 1752.13 366.673 1763.24 357.521C1775.85 347.718 1784.58 336.803 1790.69 323.219C1797.16 310.279 1800.3 295.466 1800.3 277.944C1800.3 246.62 1796.83 222.556 1789.38 202.232C1782.4 182.001 1772.81 167.188 1759.19 155.609C1749.85 147.739 1739.61 141.729 1727.69 137.206C1722.74 135.325 1703.77 130.848 1699.08 129.94C1676.24 125.489 1650.57 125.489 1650.57 125.489H1570.87H1558.97H1511.36V134.332V154.169C1511.67 160.494 1511.69 167.753 1511.69 178.175C1512.37 191.048 1512.37 207.216 1512.37 227.697V529.194C1512.37 536.519 1512.45 543.311 1512.54 549.583C1512.68 560.662 1512.81 570.235 1512.37 578.092C1512.37 591.065 1512.37 600.447 1511.69 607.292C1511.69 610.119 1511.59 612.565 1511.36 615.11V631.403H1545.75H1626.8H1630.54V631.37C1668.98 631.192 1699.01 628.312 1722.08 622.546C1746.95 617.168 1766.19 609.113 1780.84 597.949C1795.38 588.034 1805.28 575.436 1811.11 559.433C1816.63 544.231 1819.32 527.905 1819.32 509.502C1819.32 491.736 1816.05 476.923 1809.03 462.879" fill="black"></path> </svg> 